# xmcd
#
# Track frame offsets:
#	150
#	9823
#	21196
#	36796
#	49305
#	59629
#	68741
#	83466
#	95109
#	106740
#	120495
#	130972
#	142014
#	153583
#	163691
#	171988
#	184566
#	196240
#
# Disc length: 2766 seconds
#
# Revision: 0
# Processed by: cddbd v1.5.2PL0 Copyright (c) Steve Scherf et al.
# Submitted via: audiograbber 1.83.01
#
DISCID=ef0acc12
DTITLE=Various Artist - Zimp's Picks Volume 2
DYEAR=1900
DGENRE=
TTITLE0=Butch Greaser and The - A Teenger With V D
TTITLE1=Altecs - Recess
TTITLE2=Swallows - Ride Eddie Ride
TTITLE3=Mr Rain - Who Dat
TTITLE4=Gunter Lee Carr - We're Gonna Rock
TTITLE5=Al Casey - She Gott Shake
TTITLE6=Canned Heat - Rockin With The King
TTITLE7=Webs - Lost (Cricket In My Ear)
TTITLE8=Bob Jenkins And Jades - Hey Man
TTITLE9=Howling Wolf - Riding In The Moonlight
TTITLE10=Tabbys - Hong Kong Baby
TTITLE11=Jive Five - Falling Tears
TTITLE12=Johnny Maestro And The Tymes - I'll Be True
TTITLE13=Viceroys - I'm So Sorry
TTITLE14=Lyrics - Let's Be Sweethearts Again
TTITLE15=Don Covay - Now That I Need You
TTITLE16=Del Vikings - Sun
TTITLE17=Johnnie And Joe - Darling
EXTD=
EXTT0=
EXTT1=
EXTT2=
EXTT3=
EXTT4=
EXTT5=
EXTT6=
EXTT7=
EXTT8=
EXTT9=
EXTT10=
EXTT11=
EXTT12=
EXTT13=
EXTT14=
EXTT15=
EXTT16=
EXTT17=
PLAYORDER=
